<?xml version="1.0" encoding="UTF-8" standalone="no"?><svg xmlns="http://www.w3.org/2000/svg" xmlns:xlink="http://www.w3.org/1999/xlink" contentScriptType="application/ecmascript" contentStyleType="text/css" height="175px" preserveAspectRatio="none" style="width:526px;height:175px;" version="1.1" viewBox="0 0 526 175" width="526px" zoomAndPan="magnify"><defs><filter height="300%" id="f94qy3kje45in" width="300%" x="-1" y="-1"><feGaussianBlur result="blurOut" stdDeviation="2.0"/><feColorMatrix in="blurOut" result="blurOut2" type="matrix" values="0 0 0 0 0 0 0 0 0 0 0 0 0 0 0 0 0 0 .4 0"/><feOffset dx="4.0" dy="4.0" in="blurOut2" result="blurOut3"/><feBlend in="SourceGraphic" in2="blurOut3" mode="normal"/></filter></defs><g><!--MD5=[784d533083758286c885e86b9fe3090e]
class BaseComponent--><rect fill="#FEFECE" filter="url(#f94qy3kje45in)" height="48" id="BaseComponent" style="stroke: #A80036; stroke-width: 1.5;" width="135" x="30" y="8"/><ellipse cx="45" cy="24" fill="#ADD1B2" rx="11" ry="11" style="stroke: #A80036; stroke-width: 1.0;"/><path d="M47.9688,29.6406 Q47.3906,29.9375 46.75,30.0781 Q46.1094,30.2344 45.4063,30.2344 Q42.9063,30.2344 41.5781,28.5938 Q40.2656,26.9375 40.2656,23.8125 Q40.2656,20.6875 41.5781,19.0313 Q42.9063,17.375 45.4063,17.375 Q46.1094,17.375 46.75,17.5313 Q47.4063,17.6875 47.9688,17.9844 L47.9688,20.7031 Q47.3438,20.125 46.75,19.8594 Q46.1563,19.5781 45.5313,19.5781 Q44.1875,19.5781 43.5,20.6563 Q42.8125,21.7188 42.8125,23.8125 Q42.8125,25.9063 43.5,26.9844 Q44.1875,28.0469 45.5313,28.0469 Q46.1563,28.0469 46.75,27.7813 Q47.3438,27.5 47.9688,26.9219 L47.9688,29.6406 Z "/><text fill="#000000" font-family="sans-serif" font-size="12" lengthAdjust="spacingAndGlyphs" textLength="103" x="59" y="28.1543">BaseComponent</text><line style="stroke: #A80036; stroke-width: 1.5;" x1="31" x2="164" y1="40" y2="40"/><line style="stroke: #A80036; stroke-width: 1.5;" x1="31" x2="164" y1="48" y2="48"/><!--MD5=[a84e7fb7f3fb6c8e4d1bbcfd27cebd07]
class WebSocketDataProvider--><rect fill="#FEFECE" filter="url(#f94qy3kje45in)" height="48" id="WebSocketDataProvider" style="stroke: #A80036; stroke-width: 1.5;" width="183" x="6" y="116"/><ellipse cx="21" cy="132" fill="#ADD1B2" rx="11" ry="11" style="stroke: #A80036; stroke-width: 1.0;"/><path d="M23.9688,137.6406 Q23.3906,137.9375 22.75,138.0781 Q22.1094,138.2344 21.4063,138.2344 Q18.9063,138.2344 17.5781,136.5938 Q16.2656,134.9375 16.2656,131.8125 Q16.2656,128.6875 17.5781,127.0313 Q18.9063,125.375 21.4063,125.375 Q22.1094,125.375 22.75,125.5313 Q23.4063,125.6875 23.9688,125.9844 L23.9688,128.7031 Q23.3438,128.125 22.75,127.8594 Q22.1563,127.5781 21.5313,127.5781 Q20.1875,127.5781 19.5,128.6563 Q18.8125,129.7188 18.8125,131.8125 Q18.8125,133.9063 19.5,134.9844 Q20.1875,136.0469 21.5313,136.0469 Q22.1563,136.0469 22.75,135.7813 Q23.3438,135.5 23.9688,134.9219 L23.9688,137.6406 Z "/><text fill="#000000" font-family="sans-serif" font-size="12" lengthAdjust="spacingAndGlyphs" textLength="151" x="35" y="136.1543">WebSocketDataProvider</text><line style="stroke: #A80036; stroke-width: 1.5;" x1="7" x2="188" y1="148" y2="148"/><line style="stroke: #A80036; stroke-width: 1.5;" x1="7" x2="188" y1="156" y2="156"/><!--MD5=[445e29fabf7deb6468a94138abc739ef]
class ConfigProvider--><rect fill="#FEFECE" filter="url(#f94qy3kje45in)" height="48" id="ConfigProvider" style="stroke: #A80036; stroke-width: 1.5;" width="121" x="222" y="8"/><ellipse cx="237" cy="24" fill="#B4A7E5" rx="11" ry="11" style="stroke: #A80036; stroke-width: 1.0;"/><path d="M232.9219,19.7656 L232.9219,17.6094 L240.3125,17.6094 L240.3125,19.7656 L237.8438,19.7656 L237.8438,27.8438 L240.3125,27.8438 L240.3125,30 L232.9219,30 L232.9219,27.8438 L235.3906,27.8438 L235.3906,19.7656 L232.9219,19.7656 Z "/><text fill="#000000" font-family="sans-serif" font-size="12" font-style="italic" lengthAdjust="spacingAndGlyphs" textLength="89" x="251" y="28.1543">ConfigProvider</text><line style="stroke: #A80036; stroke-width: 1.5;" x1="223" x2="342" y1="40" y2="40"/><line style="stroke: #A80036; stroke-width: 1.5;" x1="223" x2="342" y1="48" y2="48"/><!--MD5=[b9f9fbcbe1c9751a23b37a046f6bde84]
class ConfigService--><rect fill="#FEFECE" filter="url(#f94qy3kje45in)" height="48" id="ConfigService" style="stroke: #A80036; stroke-width: 1.5;" width="116" x="224.5" y="116"/><ellipse cx="239.5" cy="132" fill="#ADD1B2" rx="11" ry="11" style="stroke: #A80036; stroke-width: 1.0;"/><path d="M242.4688,137.6406 Q241.8906,137.9375 241.25,138.0781 Q240.6094,138.2344 239.9063,138.2344 Q237.4063,138.2344 236.0781,136.5938 Q234.7656,134.9375 234.7656,131.8125 Q234.7656,128.6875 236.0781,127.0313 Q237.4063,125.375 239.9063,125.375 Q240.6094,125.375 241.25,125.5313 Q241.9063,125.6875 242.4688,125.9844 L242.4688,128.7031 Q241.8438,128.125 241.25,127.8594 Q240.6563,127.5781 240.0313,127.5781 Q238.6875,127.5781 238,128.6563 Q237.3125,129.7188 237.3125,131.8125 Q237.3125,133.9063 238,134.9844 Q238.6875,136.0469 240.0313,136.0469 Q240.6563,136.0469 241.25,135.7813 Q241.8438,135.5 242.4688,134.9219 L242.4688,137.6406 Z "/><text fill="#000000" font-family="sans-serif" font-size="12" lengthAdjust="spacingAndGlyphs" textLength="84" x="253.5" y="136.1543">ConfigService</text><line style="stroke: #A80036; stroke-width: 1.5;" x1="225.5" x2="339.5" y1="148" y2="148"/><line style="stroke: #A80036; stroke-width: 1.5;" x1="225.5" x2="339.5" y1="156" y2="156"/><!--MD5=[9f117042c88a7347c48cac1cc9f0fb7e]
class EventBusProtocol--><rect fill="#FEFECE" filter="url(#f94qy3kje45in)" height="48" id="EventBusProtocol" style="stroke: #A80036; stroke-width: 1.5;" width="140" x="375.5" y="116"/><ellipse cx="390.5" cy="132" fill="#B4A7E5" rx="11" ry="11" style="stroke: #A80036; stroke-width: 1.0;"/><path d="M386.4219,127.7656 L386.4219,125.6094 L393.8125,125.6094 L393.8125,127.7656 L391.3438,127.7656 L391.3438,135.8438 L393.8125,135.8438 L393.8125,138 L386.4219,138 L386.4219,135.8438 L388.8906,135.8438 L388.8906,127.7656 L386.4219,127.7656 Z "/><text fill="#000000" font-family="sans-serif" font-size="12" font-style="italic" lengthAdjust="spacingAndGlyphs" textLength="108" x="404.5" y="136.1543">EventBusProtocol</text><line style="stroke: #A80036; stroke-width: 1.5;" x1="376.5" x2="514.5" y1="148" y2="148"/><line style="stroke: #A80036; stroke-width: 1.5;" x1="376.5" x2="514.5" y1="156" y2="156"/><!--MD5=[c35f79b668e19d1c0bb8c2fa20d25922]
class EventBus--><rect fill="#FEFECE" filter="url(#f94qy3kje45in)" height="48" id="EventBus" style="stroke: #A80036; stroke-width: 1.5;" width="90" x="400.5" y="8"/><ellipse cx="415.5" cy="24" fill="#ADD1B2" rx="11" ry="11" style="stroke: #A80036; stroke-width: 1.0;"/><path d="M418.4688,29.6406 Q417.8906,29.9375 417.25,30.0781 Q416.6094,30.2344 415.9063,30.2344 Q413.4063,30.2344 412.0781,28.5938 Q410.7656,26.9375 410.7656,23.8125 Q410.7656,20.6875 412.0781,19.0313 Q413.4063,17.375 415.9063,17.375 Q416.6094,17.375 417.25,17.5313 Q417.9063,17.6875 418.4688,17.9844 L418.4688,20.7031 Q417.8438,20.125 417.25,19.8594 Q416.6563,19.5781 416.0313,19.5781 Q414.6875,19.5781 414,20.6563 Q413.3125,21.7188 413.3125,23.8125 Q413.3125,25.9063 414,26.9844 Q414.6875,28.0469 416.0313,28.0469 Q416.6563,28.0469 417.25,27.7813 Q417.8438,27.5 418.4688,26.9219 L418.4688,29.6406 Z "/><text fill="#000000" font-family="sans-serif" font-size="12" lengthAdjust="spacingAndGlyphs" textLength="58" x="429.5" y="28.1543">EventBus</text><line style="stroke: #A80036; stroke-width: 1.5;" x1="401.5" x2="489.5" y1="40" y2="40"/><line style="stroke: #A80036; stroke-width: 1.5;" x1="401.5" x2="489.5" y1="48" y2="48"/><!--MD5=[a28171ca649a0bed9032a53b1663aad3]
reverse link BaseComponent to WebSocketDataProvider--><path d="M97.5,76.02 C97.5,89.58 97.5,104.04 97.5,115.68 " fill="none" id="BaseComponent&lt;-WebSocketDataProvider" style="stroke: #A80036; stroke-width: 1.0;"/><polygon fill="none" points="90.5,76,97.5,56,104.5,76,90.5,76" style="stroke: #A80036; stroke-width: 1.0;"/><!--MD5=[3c4c84d664ec7ef5d70be03ddf22a0d1]
reverse link ConfigProvider to ConfigService--><path d="M282.5,76.02 C282.5,89.58 282.5,104.04 282.5,115.68 " fill="none" id="ConfigProvider&lt;-ConfigService" style="stroke: #A80036; stroke-width: 1.0; stroke-dasharray: 7.0,7.0;"/><polygon fill="none" points="275.5,76,282.5,56,289.5,76,275.5,76" style="stroke: #A80036; stroke-width: 1.0;"/><!--MD5=[6a91dfcfee88e506a30bd6eb0432c291]
link EventBus to EventBusProtocol--><path d="M445.5,56 C445.5,67.59 445.5,82.03 445.5,95.6 " fill="none" id="EventBus-&gt;EventBusProtocol" style="stroke: #A80036; stroke-width: 1.0; stroke-dasharray: 7.0,7.0;"/><polygon fill="none" points="452.5,95.68,445.5,115.68,438.5,95.68,452.5,95.68" style="stroke: #A80036; stroke-width: 1.0;"/><!--MD5=[632b8c80112fefad8ad8d2bc43a7a9f1]
@startuml
class BaseComponent
class WebSocketDataProvider
BaseComponent <|- - WebSocketDataProvider

interface ConfigProvider
class ConfigService
ConfigProvider <|.. ConfigService

interface EventBusProtocol
class EventBus
EventBus ..|> EventBusProtocol
@enduml

PlantUML version 1.2020.02(Sun Mar 01 10:22:07 UTC 2020)
(GPL source distribution)
Java Runtime: OpenJDK Runtime Environment
JVM: OpenJDK 64-Bit Server VM
Java Version: 21.0.2+13-58
Operating System: Linux
Default Encoding: UTF-8
Language: en
Country: null
--></g></svg>