<?xml version="1.0" encoding="UTF-8" standalone="no"?><svg xmlns="http://www.w3.org/2000/svg" xmlns:xlink="http://www.w3.org/1999/xlink" contentScriptType="application/ecmascript" contentStyleType="text/css" height="175px" preserveAspectRatio="none" style="width:828px;height:175px;" version="1.1" viewBox="0 0 828 175" width="828px" zoomAndPan="magnify"><defs><filter height="300%" id="f1gynudajhn33q" width="300%" x="-1" y="-1"><feGaussianBlur result="blurOut" stdDeviation="2.0"/><feColorMatrix in="blurOut" result="blurOut2" type="matrix" values="0 0 0 0 0 0 0 0 0 0 0 0 0 0 0 0 0 0 .4 0"/><feOffset dx="4.0" dy="4.0" in="blurOut2" result="blurOut3"/><feBlend in="SourceGraphic" in2="blurOut3" mode="normal"/></filter></defs><g><!--MD5=[0f7bc2b2700b8f1b8b0a0321832dd523]
class BaseModel--><rect fill="#FEFECE" filter="url(#f1gynudajhn33q)" height="48" id="BaseModel" style="stroke: #A80036; stroke-width: 1.5;" width="100" x="156" y="8"/><ellipse cx="171" cy="24" fill="#ADD1B2" rx="11" ry="11" style="stroke: #A80036; stroke-width: 1.0;"/><path d="M173.9688,29.6406 Q173.3906,29.9375 172.75,30.0781 Q172.1094,30.2344 171.4063,30.2344 Q168.9063,30.2344 167.5781,28.5938 Q166.2656,26.9375 166.2656,23.8125 Q166.2656,20.6875 167.5781,19.0313 Q168.9063,17.375 171.4063,17.375 Q172.1094,17.375 172.75,17.5313 Q173.4063,17.6875 173.9688,17.9844 L173.9688,20.7031 Q173.3438,20.125 172.75,19.8594 Q172.1563,19.5781 171.5313,19.5781 Q170.1875,19.5781 169.5,20.6563 Q168.8125,21.7188 168.8125,23.8125 Q168.8125,25.9063 169.5,26.9844 Q170.1875,28.0469 171.5313,28.0469 Q172.1563,28.0469 172.75,27.7813 Q173.3438,27.5 173.9688,26.9219 L173.9688,29.6406 Z "/><text fill="#000000" font-family="sans-serif" font-size="12" lengthAdjust="spacingAndGlyphs" textLength="68" x="185" y="28.1543">BaseModel</text><line style="stroke: #A80036; stroke-width: 1.5;" x1="157" x2="255" y1="40" y2="40"/><line style="stroke: #A80036; stroke-width: 1.5;" x1="157" x2="255" y1="48" y2="48"/><!--MD5=[9f117042c88a7347c48cac1cc9f0fb7e]
class EventBusProtocol--><rect fill="#FEFECE" filter="url(#f1gynudajhn33q)" height="48" id="EventBusProtocol" style="stroke: #A80036; stroke-width: 1.5;" width="140" x="6" y="116"/><ellipse cx="21" cy="132" fill="#B4A7E5" rx="11" ry="11" style="stroke: #A80036; stroke-width: 1.0;"/><path d="M16.9219,127.7656 L16.9219,125.6094 L24.3125,125.6094 L24.3125,127.7656 L21.8438,127.7656 L21.8438,135.8438 L24.3125,135.8438 L24.3125,138 L16.9219,138 L16.9219,135.8438 L19.3906,135.8438 L19.3906,127.7656 L16.9219,127.7656 Z "/><text fill="#000000" font-family="sans-serif" font-size="12" font-style="italic" lengthAdjust="spacingAndGlyphs" textLength="108" x="35" y="136.1543">EventBusProtocol</text><line style="stroke: #A80036; stroke-width: 1.5;" x1="7" x2="145" y1="148" y2="148"/><line style="stroke: #A80036; stroke-width: 1.5;" x1="7" x2="145" y1="156" y2="156"/><!--MD5=[c35f79b668e19d1c0bb8c2fa20d25922]
class EventBus--><rect fill="#FEFECE" filter="url(#f1gynudajhn33q)" height="48" id="EventBus" style="stroke: #A80036; stroke-width: 1.5;" width="90" x="31" y="8"/><ellipse cx="46" cy="24" fill="#ADD1B2" rx="11" ry="11" style="stroke: #A80036; stroke-width: 1.0;"/><path d="M48.9688,29.6406 Q48.3906,29.9375 47.75,30.0781 Q47.1094,30.2344 46.4063,30.2344 Q43.9063,30.2344 42.5781,28.5938 Q41.2656,26.9375 41.2656,23.8125 Q41.2656,20.6875 42.5781,19.0313 Q43.9063,17.375 46.4063,17.375 Q47.1094,17.375 47.75,17.5313 Q48.4063,17.6875 48.9688,17.9844 L48.9688,20.7031 Q48.3438,20.125 47.75,19.8594 Q47.1563,19.5781 46.5313,19.5781 Q45.1875,19.5781 44.5,20.6563 Q43.8125,21.7188 43.8125,23.8125 Q43.8125,25.9063 44.5,26.9844 Q45.1875,28.0469 46.5313,28.0469 Q47.1563,28.0469 47.75,27.7813 Q48.3438,27.5 48.9688,26.9219 L48.9688,29.6406 Z "/><text fill="#000000" font-family="sans-serif" font-size="12" lengthAdjust="spacingAndGlyphs" textLength="58" x="60" y="28.1543">EventBus</text><line style="stroke: #A80036; stroke-width: 1.5;" x1="32" x2="120" y1="40" y2="40"/><line style="stroke: #A80036; stroke-width: 1.5;" x1="32" x2="120" y1="48" y2="48"/><!--MD5=[1cd61d90ed752d67b361abffa842e02d]
class IPersonRepository--><rect fill="#FEFECE" filter="url(#f1gynudajhn33q)" height="48" id="IPersonRepository" style="stroke: #A80036; stroke-width: 1.5;" width="144" x="291" y="8"/><ellipse cx="306" cy="24" fill="#B4A7E5" rx="11" ry="11" style="stroke: #A80036; stroke-width: 1.0;"/><path d="M301.9219,19.7656 L301.9219,17.6094 L309.3125,17.6094 L309.3125,19.7656 L306.8438,19.7656 L306.8438,27.8438 L309.3125,27.8438 L309.3125,30 L301.9219,30 L301.9219,27.8438 L304.3906,27.8438 L304.3906,19.7656 L301.9219,19.7656 Z "/><text fill="#000000" font-family="sans-serif" font-size="12" font-style="italic" lengthAdjust="spacingAndGlyphs" textLength="112" x="320" y="28.1543">IPersonRepository</text><line style="stroke: #A80036; stroke-width: 1.5;" x1="292" x2="434" y1="40" y2="40"/><line style="stroke: #A80036; stroke-width: 1.5;" x1="292" x2="434" y1="48" y2="48"/><!--MD5=[5dd80b0e2cfd5a340a8bdf0f03b209ed]
class PersonRepository--><rect fill="#FEFECE" filter="url(#f1gynudajhn33q)" height="48" id="PersonRepository" style="stroke: #A80036; stroke-width: 1.5;" width="142" x="292" y="116"/><ellipse cx="307" cy="132" fill="#ADD1B2" rx="11" ry="11" style="stroke: #A80036; stroke-width: 1.0;"/><path d="M309.9688,137.6406 Q309.3906,137.9375 308.75,138.0781 Q308.1094,138.2344 307.4063,138.2344 Q304.9063,138.2344 303.5781,136.5938 Q302.2656,134.9375 302.2656,131.8125 Q302.2656,128.6875 303.5781,127.0313 Q304.9063,125.375 307.4063,125.375 Q308.1094,125.375 308.75,125.5313 Q309.4063,125.6875 309.9688,125.9844 L309.9688,128.7031 Q309.3438,128.125 308.75,127.8594 Q308.1563,127.5781 307.5313,127.5781 Q306.1875,127.5781 305.5,128.6563 Q304.8125,129.7188 304.8125,131.8125 Q304.8125,133.9063 305.5,134.9844 Q306.1875,136.0469 307.5313,136.0469 Q308.1563,136.0469 308.75,135.7813 Q309.3438,135.5 309.9688,134.9219 L309.9688,137.6406 Z "/><text fill="#000000" font-family="sans-serif" font-size="12" lengthAdjust="spacingAndGlyphs" textLength="110" x="321" y="136.1543">PersonRepository</text><line style="stroke: #A80036; stroke-width: 1.5;" x1="293" x2="433" y1="148" y2="148"/><line style="stroke: #A80036; stroke-width: 1.5;" x1="293" x2="433" y1="156" y2="156"/><!--MD5=[552e70b04e421b1f3f1c6113fa17a4a3]
class IAccessEventRepository--><rect fill="#FEFECE" filter="url(#f1gynudajhn33q)" height="48" id="IAccessEventRepository" style="stroke: #A80036; stroke-width: 1.5;" width="179" x="470.5" y="8"/><ellipse cx="485.5" cy="24" fill="#B4A7E5" rx="11" ry="11" style="stroke: #A80036; stroke-width: 1.0;"/><path d="M481.4219,19.7656 L481.4219,17.6094 L488.8125,17.6094 L488.8125,19.7656 L486.3438,19.7656 L486.3438,27.8438 L488.8125,27.8438 L488.8125,30 L481.4219,30 L481.4219,27.8438 L483.8906,27.8438 L483.8906,19.7656 L481.4219,19.7656 Z "/><text fill="#000000" font-family="sans-serif" font-size="12" font-style="italic" lengthAdjust="spacingAndGlyphs" textLength="147" x="499.5" y="28.1543">IAccessEventRepository</text><line style="stroke: #A80036; stroke-width: 1.5;" x1="471.5" x2="648.5" y1="40" y2="40"/><line style="stroke: #A80036; stroke-width: 1.5;" x1="471.5" x2="648.5" y1="48" y2="48"/><!--MD5=[02915532445ee14bee215737c5b51f51]
class AccessEventRepository--><rect fill="#FEFECE" filter="url(#f1gynudajhn33q)" height="48" id="AccessEventRepository" style="stroke: #A80036; stroke-width: 1.5;" width="177" x="471.5" y="116"/><ellipse cx="486.5" cy="132" fill="#ADD1B2" rx="11" ry="11" style="stroke: #A80036; stroke-width: 1.0;"/><path d="M489.4688,137.6406 Q488.8906,137.9375 488.25,138.0781 Q487.6094,138.2344 486.9063,138.2344 Q484.4063,138.2344 483.0781,136.5938 Q481.7656,134.9375 481.7656,131.8125 Q481.7656,128.6875 483.0781,127.0313 Q484.4063,125.375 486.9063,125.375 Q487.6094,125.375 488.25,125.5313 Q488.9063,125.6875 489.4688,125.9844 L489.4688,128.7031 Q488.8438,128.125 488.25,127.8594 Q487.6563,127.5781 487.0313,127.5781 Q485.6875,127.5781 485,128.6563 Q484.3125,129.7188 484.3125,131.8125 Q484.3125,133.9063 485,134.9844 Q485.6875,136.0469 487.0313,136.0469 Q487.6563,136.0469 488.25,135.7813 Q488.8438,135.5 489.4688,134.9219 L489.4688,137.6406 Z "/><text fill="#000000" font-family="sans-serif" font-size="12" lengthAdjust="spacingAndGlyphs" textLength="145" x="500.5" y="136.1543">AccessEventRepository</text><line style="stroke: #A80036; stroke-width: 1.5;" x1="472.5" x2="647.5" y1="148" y2="148"/><line style="stroke: #A80036; stroke-width: 1.5;" x1="472.5" x2="647.5" y1="156" y2="156"/><!--MD5=[d031af4ab35a6f26b56a5ca281af8a77]
class IDoorRepository--><rect fill="#FEFECE" filter="url(#f1gynudajhn33q)" height="48" id="IDoorRepository" style="stroke: #A80036; stroke-width: 1.5;" width="132" x="685" y="8"/><ellipse cx="700" cy="24" fill="#B4A7E5" rx="11" ry="11" style="stroke: #A80036; stroke-width: 1.0;"/><path d="M695.9219,19.7656 L695.9219,17.6094 L703.3125,17.6094 L703.3125,19.7656 L700.8438,19.7656 L700.8438,27.8438 L703.3125,27.8438 L703.3125,30 L695.9219,30 L695.9219,27.8438 L698.3906,27.8438 L698.3906,19.7656 L695.9219,19.7656 Z "/><text fill="#000000" font-family="sans-serif" font-size="12" font-style="italic" lengthAdjust="spacingAndGlyphs" textLength="100" x="714" y="28.1543">IDoorRepository</text><line style="stroke: #A80036; stroke-width: 1.5;" x1="686" x2="816" y1="40" y2="40"/><line style="stroke: #A80036; stroke-width: 1.5;" x1="686" x2="816" y1="48" y2="48"/><!--MD5=[1a1ffd768ee4cb0eb66cd16a309b571d]
class DoorRepository--><rect fill="#FEFECE" filter="url(#f1gynudajhn33q)" height="48" id="DoorRepository" style="stroke: #A80036; stroke-width: 1.5;" width="128" x="687" y="116"/><ellipse cx="702" cy="132" fill="#ADD1B2" rx="11" ry="11" style="stroke: #A80036; stroke-width: 1.0;"/><path d="M704.9688,137.6406 Q704.3906,137.9375 703.75,138.0781 Q703.1094,138.2344 702.4063,138.2344 Q699.9063,138.2344 698.5781,136.5938 Q697.2656,134.9375 697.2656,131.8125 Q697.2656,128.6875 698.5781,127.0313 Q699.9063,125.375 702.4063,125.375 Q703.1094,125.375 703.75,125.5313 Q704.4063,125.6875 704.9688,125.9844 L704.9688,128.7031 Q704.3438,128.125 703.75,127.8594 Q703.1563,127.5781 702.5313,127.5781 Q701.1875,127.5781 700.5,128.6563 Q699.8125,129.7188 699.8125,131.8125 Q699.8125,133.9063 700.5,134.9844 Q701.1875,136.0469 702.5313,136.0469 Q703.1563,136.0469 703.75,135.7813 Q704.3438,135.5 704.9688,134.9219 L704.9688,137.6406 Z "/><text fill="#000000" font-family="sans-serif" font-size="12" lengthAdjust="spacingAndGlyphs" textLength="96" x="716" y="136.1543">DoorRepository</text><line style="stroke: #A80036; stroke-width: 1.5;" x1="688" x2="814" y1="148" y2="148"/><line style="stroke: #A80036; stroke-width: 1.5;" x1="688" x2="814" y1="156" y2="156"/><!--MD5=[352f2585fc84f810bdc50d4130ddb6d2]
link EventBus to BaseModel--><path d="M121.2,32 C126.09,32 130.98,32 135.87,32 " fill="none" id="EventBus-&gt;BaseModel" style="stroke: #A80036; stroke-width: 1.0;"/><polygon fill="none" points="135.98,25,155.98,32,135.98,39,135.98,25" style="stroke: #A80036; stroke-width: 1.0;"/><!--MD5=[6a91dfcfee88e506a30bd6eb0432c291]
link EventBus to EventBusProtocol--><path d="M76,56 C76,67.59 76,82.03 76,95.6 " fill="none" id="EventBus-&gt;EventBusProtocol" style="stroke: #A80036; stroke-width: 1.0; stroke-dasharray: 7.0,7.0;"/><polygon fill="none" points="83,95.68,76,115.68,69,95.68,83,95.68" style="stroke: #A80036; stroke-width: 1.0;"/><!--MD5=[92e6155ef28434f6b9e1e3fa242d0583]
reverse link IPersonRepository to PersonRepository--><path d="M363,76.02 C363,89.58 363,104.04 363,115.68 " fill="none" id="IPersonRepository&lt;-PersonRepository" style="stroke: #A80036; stroke-width: 1.0; stroke-dasharray: 7.0,7.0;"/><polygon fill="none" points="356,76,363,56,370,76,356,76" style="stroke: #A80036; stroke-width: 1.0;"/><!--MD5=[8e54b71d3ddf6b8b33dbe32392fdfd11]
reverse link IAccessEventRepository to AccessEventRepository--><path d="M560,76.02 C560,89.58 560,104.04 560,115.68 " fill="none" id="IAccessEventRepository&lt;-AccessEventRepository" style="stroke: #A80036; stroke-width: 1.0; stroke-dasharray: 7.0,7.0;"/><polygon fill="none" points="553,76,560,56,567,76,553,76" style="stroke: #A80036; stroke-width: 1.0;"/><!--MD5=[ec19c994ad2e7acee02e170fb4b70018]
reverse link IDoorRepository to DoorRepository--><path d="M751,76.02 C751,89.58 751,104.04 751,115.68 " fill="none" id="IDoorRepository&lt;-DoorRepository" style="stroke: #A80036; stroke-width: 1.0; stroke-dasharray: 7.0,7.0;"/><polygon fill="none" points="744,76,751,56,758,76,744,76" style="stroke: #A80036; stroke-width: 1.0;"/><!--MD5=[7a1958b1b7db0b2abac2d96a24ccf683]
@startuml
class BaseModel
interface EventBusProtocol
class EventBus
EventBus -|> BaseModel
EventBus ..|> EventBusProtocol

interface IPersonRepository
class PersonRepository
IPersonRepository <|.. PersonRepository

interface IAccessEventRepository
class AccessEventRepository
IAccessEventRepository <|.. AccessEventRepository

interface IDoorRepository
class DoorRepository
IDoorRepository <|.. DoorRepository
@enduml

PlantUML version 1.2020.02(Sun Mar 01 10:22:07 UTC 2020)
(GPL source distribution)
Java Runtime: OpenJDK Runtime Environment
JVM: OpenJDK 64-Bit Server VM
Java Version: 21.0.2+13-58
Operating System: Linux
Default Encoding: UTF-8
Language: en
Country: null
--></g></svg>