<?xml version="1.0" encoding="UTF-8" standalone="no"?><svg xmlns="http://www.w3.org/2000/svg" xmlns:xlink="http://www.w3.org/1999/xlink" contentScriptType="application/ecmascript" contentStyleType="text/css" height="310px" preserveAspectRatio="none" style="width:517px;height:310px;" version="1.1" viewBox="0 0 517 310" width="517px" zoomAndPan="magnify"><defs><filter height="300%" id="fphac3j914qao" width="300%" x="-1" y="-1"><feGaussianBlur result="blurOut" stdDeviation="2.0"/><feColorMatrix in="blurOut" result="blurOut2" type="matrix" values="0 0 0 0 0 0 0 0 0 0 0 0 0 0 0 0 0 0 .4 0"/><feOffset dx="4.0" dy="4.0" in="blurOut2" result="blurOut3"/><feBlend in="SourceGraphic" in2="blurOut3" mode="normal"/></filter></defs><g><line style="stroke: #A80036; stroke-width: 1.0; stroke-dasharray: 5.0,5.0;" x1="42" x2="42" y1="86.2969" y2="222.8281"/><line style="stroke: #A80036; stroke-width: 1.0; stroke-dasharray: 5.0,5.0;" x1="157.5" x2="157.5" y1="86.2969" y2="222.8281"/><line style="stroke: #A80036; stroke-width: 1.0; stroke-dasharray: 5.0,5.0;" x1="344.5" x2="344.5" y1="86.2969" y2="222.8281"/><line style="stroke: #A80036; stroke-width: 1.0; stroke-dasharray: 5.0,5.0;" x1="464.5" x2="464.5" y1="86.2969" y2="222.8281"/><text fill="#000000" font-family="sans-serif" font-size="14" lengthAdjust="spacingAndGlyphs" textLength="63" x="8" y="82.9951">Producer</text><ellipse cx="42.5" cy="13" fill="#FEFECE" filter="url(#fphac3j914qao)" rx="8" ry="8" style="stroke: #A80036; stroke-width: 2.0;"/><path d="M42.5,21 L42.5,48 M29.5,29 L55.5,29 M42.5,48 L29.5,63 M42.5,48 L55.5,63 " fill="none" filter="url(#fphac3j914qao)" style="stroke: #A80036; stroke-width: 2.0;"/><text fill="#000000" font-family="sans-serif" font-size="14" lengthAdjust="spacingAndGlyphs" textLength="63" x="8" y="234.8232">Producer</text><ellipse cx="42.5" cy="248.125" fill="#FEFECE" filter="url(#fphac3j914qao)" rx="8" ry="8" style="stroke: #A80036; stroke-width: 2.0;"/><path d="M42.5,256.125 L42.5,283.125 M29.5,264.125 L55.5,264.125 M42.5,283.125 L29.5,298.125 M42.5,283.125 L55.5,298.125 " fill="none" filter="url(#fphac3j914qao)" style="stroke: #A80036; stroke-width: 2.0;"/><rect fill="#FEFECE" filter="url(#fphac3j914qao)" height="30.2969" style="stroke: #A80036; stroke-width: 1.5;" width="80" x="115.5" y="51"/><text fill="#000000" font-family="sans-serif" font-size="14" lengthAdjust="spacingAndGlyphs" textLength="66" x="122.5" y="70.9951">EventBus</text><rect fill="#FEFECE" filter="url(#fphac3j914qao)" height="30.2969" style="stroke: #A80036; stroke-width: 1.5;" width="80" x="115.5" y="221.8281"/><text fill="#000000" font-family="sans-serif" font-size="14" lengthAdjust="spacingAndGlyphs" textLength="66" x="122.5" y="241.8232">EventBus</text><rect fill="#FEFECE" filter="url(#fphac3j914qao)" height="30.2969" style="stroke: #A80036; stroke-width: 1.5;" width="124" x="280.5" y="51"/><text fill="#000000" font-family="sans-serif" font-size="14" lengthAdjust="spacingAndGlyphs" textLength="110" x="287.5" y="70.9951">AnalyticsService</text><rect fill="#FEFECE" filter="url(#fphac3j914qao)" height="30.2969" style="stroke: #A80036; stroke-width: 1.5;" width="124" x="280.5" y="221.8281"/><text fill="#000000" font-family="sans-serif" font-size="14" lengthAdjust="spacingAndGlyphs" textLength="110" x="287.5" y="241.8232">AnalyticsService</text><rect fill="#FEFECE" filter="url(#fphac3j914qao)" height="30.2969" style="stroke: #A80036; stroke-width: 1.5;" width="88" x="418.5" y="51"/><text fill="#000000" font-family="sans-serif" font-size="14" lengthAdjust="spacingAndGlyphs" textLength="74" x="425.5" y="70.9951">Repository</text><rect fill="#FEFECE" filter="url(#fphac3j914qao)" height="30.2969" style="stroke: #A80036; stroke-width: 1.5;" width="88" x="418.5" y="221.8281"/><text fill="#000000" font-family="sans-serif" font-size="14" lengthAdjust="spacingAndGlyphs" textLength="74" x="425.5" y="241.8232">Repository</text><polygon fill="#A80036" points="145.5,113.4297,155.5,117.4297,145.5,121.4297,149.5,117.4297" style="stroke: #A80036; stroke-width: 1.0;"/><line style="stroke: #A80036; stroke-width: 1.0;" x1="42.5" x2="151.5" y1="117.4297" y2="117.4297"/><text fill="#000000" font-family="sans-serif" font-size="13" lengthAdjust="spacingAndGlyphs" textLength="91" x="49.5" y="112.3638">publish(event)</text><polygon fill="#A80036" points="332.5,142.5625,342.5,146.5625,332.5,150.5625,336.5,146.5625" style="stroke: #A80036; stroke-width: 1.0;"/><line style="stroke: #A80036; stroke-width: 1.0;" x1="157.5" x2="338.5" y1="146.5625" y2="146.5625"/><text fill="#000000" font-family="sans-serif" font-size="13" lengthAdjust="spacingAndGlyphs" textLength="100" x="164.5" y="141.4966">dispatch(event)</text><polygon fill="#A80036" points="452.5,171.6953,462.5,175.6953,452.5,179.6953,456.5,175.6953" style="stroke: #A80036; stroke-width: 1.0;"/><line style="stroke: #A80036; stroke-width: 1.0;" x1="344.5" x2="458.5" y1="175.6953" y2="175.6953"/><text fill="#000000" font-family="sans-serif" font-size="13" lengthAdjust="spacingAndGlyphs" textLength="89" x="351.5" y="170.6294">persist(event)</text><polygon fill="#A80036" points="168.5,200.8281,158.5,204.8281,168.5,208.8281,164.5,204.8281" style="stroke: #A80036; stroke-width: 1.0;"/><line style="stroke: #A80036; stroke-width: 1.0;" x1="162.5" x2="343.5" y1="204.8281" y2="204.8281"/><text fill="#000000" font-family="sans-serif" font-size="13" lengthAdjust="spacingAndGlyphs" textLength="163" x="174.5" y="199.7622">publish(analytics_update)</text><!--MD5=[aa44af4e5aca889a355cad7872fc36b3]
@startuml
actor Producer
participant "EventBus" as Bus
participant "AnalyticsService" as Service
participant "Repository" as Repo

Producer -> Bus : publish(event)
Bus -> Service : dispatch(event)
Service -> Repo : persist(event)
Service -> Bus : publish(analytics_update)
@enduml

PlantUML version 1.2020.02(Sun Mar 01 10:22:07 UTC 2020)
(GPL source distribution)
Java Runtime: OpenJDK Runtime Environment
JVM: OpenJDK 64-Bit Server VM
Java Version: 21.0.2+13-58
Operating System: Linux
Default Encoding: UTF-8
Language: en
Country: null
--></g></svg>