<?xml version="1.0" encoding="UTF-8" standalone="no"?><svg xmlns="http://www.w3.org/2000/svg" xmlns:xlink="http://www.w3.org/1999/xlink" contentScriptType="application/ecmascript" contentStyleType="text/css" height="339px" preserveAspectRatio="none" style="width:639px;height:339px;" version="1.1" viewBox="0 0 639 339" width="639px" zoomAndPan="magnify"><defs><filter height="300%" id="f1i70fo2nhx1ml" width="300%" x="-1" y="-1"><feGaussianBlur result="blurOut" stdDeviation="2.0"/><feColorMatrix in="blurOut" result="blurOut2" type="matrix" values="0 0 0 0 0 0 0 0 0 0 0 0 0 0 0 0 0 0 .4 0"/><feOffset dx="4.0" dy="4.0" in="blurOut2" result="blurOut3"/><feBlend in="SourceGraphic" in2="blurOut3" mode="normal"/></filter></defs><g><line style="stroke: #A80036; stroke-width: 1.0; stroke-dasharray: 5.0,5.0;" x1="42" x2="42" y1="86.2969" y2="251.9609"/><line style="stroke: #A80036; stroke-width: 1.0; stroke-dasharray: 5.0,5.0;" x1="157.5" x2="157.5" y1="86.2969" y2="251.9609"/><line style="stroke: #A80036; stroke-width: 1.0; stroke-dasharray: 5.0,5.0;" x1="344.5" x2="344.5" y1="86.2969" y2="251.9609"/><line style="stroke: #A80036; stroke-width: 1.0; stroke-dasharray: 5.0,5.0;" x1="474.5" x2="474.5" y1="86.2969" y2="251.9609"/><line style="stroke: #A80036; stroke-width: 1.0; stroke-dasharray: 5.0,5.0;" x1="586.5" x2="586.5" y1="86.2969" y2="251.9609"/><text fill="#000000" font-family="sans-serif" font-size="14" lengthAdjust="spacingAndGlyphs" textLength="63" x="8" y="82.9951">Producer</text><ellipse cx="42.5" cy="13" fill="#FEFECE" filter="url(#f1i70fo2nhx1ml)" rx="8" ry="8" style="stroke: #A80036; stroke-width: 2.0;"/><path d="M42.5,21 L42.5,48 M29.5,29 L55.5,29 M42.5,48 L29.5,63 M42.5,48 L55.5,63 " fill="none" filter="url(#f1i70fo2nhx1ml)" style="stroke: #A80036; stroke-width: 2.0;"/><text fill="#000000" font-family="sans-serif" font-size="14" lengthAdjust="spacingAndGlyphs" textLength="63" x="8" y="263.9561">Producer</text><ellipse cx="42.5" cy="277.2578" fill="#FEFECE" filter="url(#f1i70fo2nhx1ml)" rx="8" ry="8" style="stroke: #A80036; stroke-width: 2.0;"/><path d="M42.5,285.2578 L42.5,312.2578 M29.5,293.2578 L55.5,293.2578 M42.5,312.2578 L29.5,327.2578 M42.5,312.2578 L55.5,327.2578 " fill="none" filter="url(#f1i70fo2nhx1ml)" style="stroke: #A80036; stroke-width: 2.0;"/><rect fill="#FEFECE" filter="url(#f1i70fo2nhx1ml)" height="30.2969" style="stroke: #A80036; stroke-width: 1.5;" width="80" x="115.5" y="51"/><text fill="#000000" font-family="sans-serif" font-size="14" lengthAdjust="spacingAndGlyphs" textLength="66" x="122.5" y="70.9951">EventBus</text><rect fill="#FEFECE" filter="url(#f1i70fo2nhx1ml)" height="30.2969" style="stroke: #A80036; stroke-width: 1.5;" width="80" x="115.5" y="250.9609"/><text fill="#000000" font-family="sans-serif" font-size="14" lengthAdjust="spacingAndGlyphs" textLength="66" x="122.5" y="270.9561">EventBus</text><rect fill="#FEFECE" filter="url(#f1i70fo2nhx1ml)" height="30.2969" style="stroke: #A80036; stroke-width: 1.5;" width="124" x="280.5" y="51"/><text fill="#000000" font-family="sans-serif" font-size="14" lengthAdjust="spacingAndGlyphs" textLength="110" x="287.5" y="70.9951">AnalyticsService</text><rect fill="#FEFECE" filter="url(#f1i70fo2nhx1ml)" height="30.2969" style="stroke: #A80036; stroke-width: 1.5;" width="124" x="280.5" y="250.9609"/><text fill="#000000" font-family="sans-serif" font-size="14" lengthAdjust="spacingAndGlyphs" textLength="110" x="287.5" y="270.9561">AnalyticsService</text><rect fill="#FEFECE" filter="url(#f1i70fo2nhx1ml)" height="30.2969" style="stroke: #A80036; stroke-width: 1.5;" width="108" x="418.5" y="51"/><text fill="#000000" font-family="sans-serif" font-size="14" lengthAdjust="spacingAndGlyphs" textLength="94" x="425.5" y="70.9951">ConfigService</text><rect fill="#FEFECE" filter="url(#f1i70fo2nhx1ml)" height="30.2969" style="stroke: #A80036; stroke-width: 1.5;" width="108" x="418.5" y="250.9609"/><text fill="#000000" font-family="sans-serif" font-size="14" lengthAdjust="spacingAndGlyphs" textLength="94" x="425.5" y="270.9561">ConfigService</text><rect fill="#FEFECE" filter="url(#f1i70fo2nhx1ml)" height="30.2969" style="stroke: #A80036; stroke-width: 1.5;" width="88" x="540.5" y="51"/><text fill="#000000" font-family="sans-serif" font-size="14" lengthAdjust="spacingAndGlyphs" textLength="74" x="547.5" y="70.9951">Repository</text><rect fill="#FEFECE" filter="url(#f1i70fo2nhx1ml)" height="30.2969" style="stroke: #A80036; stroke-width: 1.5;" width="88" x="540.5" y="250.9609"/><text fill="#000000" font-family="sans-serif" font-size="14" lengthAdjust="spacingAndGlyphs" textLength="74" x="547.5" y="270.9561">Repository</text><polygon fill="#A80036" points="145.5,113.4297,155.5,117.4297,145.5,121.4297,149.5,117.4297" style="stroke: #A80036; stroke-width: 1.0;"/><line style="stroke: #A80036; stroke-width: 1.0;" x1="42.5" x2="151.5" y1="117.4297" y2="117.4297"/><text fill="#000000" font-family="sans-serif" font-size="13" lengthAdjust="spacingAndGlyphs" textLength="91" x="49.5" y="112.3638">publish(event)</text><polygon fill="#A80036" points="332.5,142.5625,342.5,146.5625,332.5,150.5625,336.5,146.5625" style="stroke: #A80036; stroke-width: 1.0;"/><line style="stroke: #A80036; stroke-width: 1.0;" x1="157.5" x2="338.5" y1="146.5625" y2="146.5625"/><text fill="#000000" font-family="sans-serif" font-size="13" lengthAdjust="spacingAndGlyphs" textLength="100" x="164.5" y="141.4966">dispatch(event)</text><polygon fill="#A80036" points="462.5,171.6953,472.5,175.6953,462.5,179.6953,466.5,175.6953" style="stroke: #A80036; stroke-width: 1.0;"/><line style="stroke: #A80036; stroke-width: 1.0;" x1="344.5" x2="468.5" y1="175.6953" y2="175.6953"/><text fill="#000000" font-family="sans-serif" font-size="13" lengthAdjust="spacingAndGlyphs" textLength="82" x="351.5" y="170.6294">load settings</text><polygon fill="#A80036" points="574.5,200.8281,584.5,204.8281,574.5,208.8281,578.5,204.8281" style="stroke: #A80036; stroke-width: 1.0;"/><line style="stroke: #A80036; stroke-width: 1.0;" x1="344.5" x2="580.5" y1="204.8281" y2="204.8281"/><text fill="#000000" font-family="sans-serif" font-size="13" lengthAdjust="spacingAndGlyphs" textLength="89" x="351.5" y="199.7622">persist(event)</text><polygon fill="#A80036" points="168.5,229.9609,158.5,233.9609,168.5,237.9609,164.5,233.9609" style="stroke: #A80036; stroke-width: 1.0;"/><line style="stroke: #A80036; stroke-width: 1.0;" x1="162.5" x2="343.5" y1="233.9609" y2="233.9609"/><text fill="#000000" font-family="sans-serif" font-size="13" lengthAdjust="spacingAndGlyphs" textLength="163" x="174.5" y="228.895">publish(analytics_update)</text><!--MD5=[d716a4561d7df2c5b5833e2d89e16d6a]
@startuml
actor Producer
participant "EventBus" as Bus
participant "AnalyticsService" as Service
participant "ConfigService" as Config
participant "Repository" as Repo

Producer -> Bus : publish(event)
Bus -> Service : dispatch(event)
Service -> Config : load settings
Service -> Repo : persist(event)
Service -> Bus : publish(analytics_update)
@enduml

PlantUML version 1.2020.02(Sun Mar 01 10:22:07 UTC 2020)
(GPL source distribution)
Java Runtime: OpenJDK Runtime Environment
JVM: OpenJDK 64-Bit Server VM
Java Version: 21.0.2+13-58
Operating System: Linux
Default Encoding: UTF-8
Language: en
Country: null
--></g></svg>