<?xml version="1.0" encoding="UTF-8" standalone="no"?><svg xmlns="http://www.w3.org/2000/svg" xmlns:xlink="http://www.w3.org/1999/xlink" contentScriptType="application/ecmascript" contentStyleType="text/css" height="175px" preserveAspectRatio="none" style="width:776px;height:175px;" version="1.1" viewBox="0 0 776 175" width="776px" zoomAndPan="magnify"><defs><filter height="300%" id="f1u0wq0eshp8ey" width="300%" x="-1" y="-1"><feGaussianBlur result="blurOut" stdDeviation="2.0"/><feColorMatrix in="blurOut" result="blurOut2" type="matrix" values="0 0 0 0 0 0 0 0 0 0 0 0 0 0 0 0 0 0 .4 0"/><feOffset dx="4.0" dy="4.0" in="blurOut2" result="blurOut3"/><feBlend in="SourceGraphic" in2="blurOut3" mode="normal"/></filter></defs><g><!--MD5=[1cd61d90ed752d67b361abffa842e02d]
class IPersonRepository--><rect fill="#FEFECE" filter="url(#f1u0wq0eshp8ey)" height="48" id="IPersonRepository" style="stroke: #A80036; stroke-width: 1.5;" width="144" x="109" y="8"/><ellipse cx="124" cy="24" fill="#B4A7E5" rx="11" ry="11" style="stroke: #A80036; stroke-width: 1.0;"/><path d="M119.9219,19.7656 L119.9219,17.6094 L127.3125,17.6094 L127.3125,19.7656 L124.8438,19.7656 L124.8438,27.8438 L127.3125,27.8438 L127.3125,30 L119.9219,30 L119.9219,27.8438 L122.3906,27.8438 L122.3906,19.7656 L119.9219,19.7656 Z "/><text fill="#000000" font-family="sans-serif" font-size="12" font-style="italic" lengthAdjust="spacingAndGlyphs" textLength="112" x="138" y="28.1543">IPersonRepository</text><line style="stroke: #A80036; stroke-width: 1.5;" x1="110" x2="252" y1="40" y2="40"/><line style="stroke: #A80036; stroke-width: 1.5;" x1="110" x2="252" y1="48" y2="48"/><!--MD5=[5dd80b0e2cfd5a340a8bdf0f03b209ed]
class PersonRepository--><rect fill="#FEFECE" filter="url(#f1u0wq0eshp8ey)" height="48" id="PersonRepository" style="stroke: #A80036; stroke-width: 1.5;" width="142" x="6" y="116"/><ellipse cx="21" cy="132" fill="#ADD1B2" rx="11" ry="11" style="stroke: #A80036; stroke-width: 1.0;"/><path d="M23.9688,137.6406 Q23.3906,137.9375 22.75,138.0781 Q22.1094,138.2344 21.4063,138.2344 Q18.9063,138.2344 17.5781,136.5938 Q16.2656,134.9375 16.2656,131.8125 Q16.2656,128.6875 17.5781,127.0313 Q18.9063,125.375 21.4063,125.375 Q22.1094,125.375 22.75,125.5313 Q23.4063,125.6875 23.9688,125.9844 L23.9688,128.7031 Q23.3438,128.125 22.75,127.8594 Q22.1563,127.5781 21.5313,127.5781 Q20.1875,127.5781 19.5,128.6563 Q18.8125,129.7188 18.8125,131.8125 Q18.8125,133.9063 19.5,134.9844 Q20.1875,136.0469 21.5313,136.0469 Q22.1563,136.0469 22.75,135.7813 Q23.3438,135.5 23.9688,134.9219 L23.9688,137.6406 Z "/><text fill="#000000" font-family="sans-serif" font-size="12" lengthAdjust="spacingAndGlyphs" textLength="110" x="35" y="136.1543">PersonRepository</text><line style="stroke: #A80036; stroke-width: 1.5;" x1="7" x2="147" y1="148" y2="148"/><line style="stroke: #A80036; stroke-width: 1.5;" x1="7" x2="147" y1="156" y2="156"/><!--MD5=[ac2dc1fb868666ddaf6ce5c4213e899b]
class InMemoryPersonRepository--><rect fill="#FEFECE" filter="url(#f1u0wq0eshp8ey)" height="48" id="InMemoryPersonRepository" style="stroke: #A80036; stroke-width: 1.5;" width="201" x="183.5" y="116"/><ellipse cx="198.5" cy="132" fill="#ADD1B2" rx="11" ry="11" style="stroke: #A80036; stroke-width: 1.0;"/><path d="M201.4688,137.6406 Q200.8906,137.9375 200.25,138.0781 Q199.6094,138.2344 198.9063,138.2344 Q196.4063,138.2344 195.0781,136.5938 Q193.7656,134.9375 193.7656,131.8125 Q193.7656,128.6875 195.0781,127.0313 Q196.4063,125.375 198.9063,125.375 Q199.6094,125.375 200.25,125.5313 Q200.9063,125.6875 201.4688,125.9844 L201.4688,128.7031 Q200.8438,128.125 200.25,127.8594 Q199.6563,127.5781 199.0313,127.5781 Q197.6875,127.5781 197,128.6563 Q196.3125,129.7188 196.3125,131.8125 Q196.3125,133.9063 197,134.9844 Q197.6875,136.0469 199.0313,136.0469 Q199.6563,136.0469 200.25,135.7813 Q200.8438,135.5 201.4688,134.9219 L201.4688,137.6406 Z "/><text fill="#000000" font-family="sans-serif" font-size="12" lengthAdjust="spacingAndGlyphs" textLength="169" x="212.5" y="136.1543">InMemoryPersonRepository</text><line style="stroke: #A80036; stroke-width: 1.5;" x1="184.5" x2="383.5" y1="148" y2="148"/><line style="stroke: #A80036; stroke-width: 1.5;" x1="184.5" x2="383.5" y1="156" y2="156"/><!--MD5=[552e70b04e421b1f3f1c6113fa17a4a3]
class IAccessEventRepository--><rect fill="#FEFECE" filter="url(#f1u0wq0eshp8ey)" height="48" id="IAccessEventRepository" style="stroke: #A80036; stroke-width: 1.5;" width="179" x="418.5" y="8"/><ellipse cx="433.5" cy="24" fill="#B4A7E5" rx="11" ry="11" style="stroke: #A80036; stroke-width: 1.0;"/><path d="M429.4219,19.7656 L429.4219,17.6094 L436.8125,17.6094 L436.8125,19.7656 L434.3438,19.7656 L434.3438,27.8438 L436.8125,27.8438 L436.8125,30 L429.4219,30 L429.4219,27.8438 L431.8906,27.8438 L431.8906,19.7656 L429.4219,19.7656 Z "/><text fill="#000000" font-family="sans-serif" font-size="12" font-style="italic" lengthAdjust="spacingAndGlyphs" textLength="147" x="447.5" y="28.1543">IAccessEventRepository</text><line style="stroke: #A80036; stroke-width: 1.5;" x1="419.5" x2="596.5" y1="40" y2="40"/><line style="stroke: #A80036; stroke-width: 1.5;" x1="419.5" x2="596.5" y1="48" y2="48"/><!--MD5=[02915532445ee14bee215737c5b51f51]
class AccessEventRepository--><rect fill="#FEFECE" filter="url(#f1u0wq0eshp8ey)" height="48" id="AccessEventRepository" style="stroke: #A80036; stroke-width: 1.5;" width="177" x="419.5" y="116"/><ellipse cx="434.5" cy="132" fill="#ADD1B2" rx="11" ry="11" style="stroke: #A80036; stroke-width: 1.0;"/><path d="M437.4688,137.6406 Q436.8906,137.9375 436.25,138.0781 Q435.6094,138.2344 434.9063,138.2344 Q432.4063,138.2344 431.0781,136.5938 Q429.7656,134.9375 429.7656,131.8125 Q429.7656,128.6875 431.0781,127.0313 Q432.4063,125.375 434.9063,125.375 Q435.6094,125.375 436.25,125.5313 Q436.9063,125.6875 437.4688,125.9844 L437.4688,128.7031 Q436.8438,128.125 436.25,127.8594 Q435.6563,127.5781 435.0313,127.5781 Q433.6875,127.5781 433,128.6563 Q432.3125,129.7188 432.3125,131.8125 Q432.3125,133.9063 433,134.9844 Q433.6875,136.0469 435.0313,136.0469 Q435.6563,136.0469 436.25,135.7813 Q436.8438,135.5 437.4688,134.9219 L437.4688,137.6406 Z "/><text fill="#000000" font-family="sans-serif" font-size="12" lengthAdjust="spacingAndGlyphs" textLength="145" x="448.5" y="136.1543">AccessEventRepository</text><line style="stroke: #A80036; stroke-width: 1.5;" x1="420.5" x2="595.5" y1="148" y2="148"/><line style="stroke: #A80036; stroke-width: 1.5;" x1="420.5" x2="595.5" y1="156" y2="156"/><!--MD5=[d031af4ab35a6f26b56a5ca281af8a77]
class IDoorRepository--><rect fill="#FEFECE" filter="url(#f1u0wq0eshp8ey)" height="48" id="IDoorRepository" style="stroke: #A80036; stroke-width: 1.5;" width="132" x="633" y="8"/><ellipse cx="648" cy="24" fill="#B4A7E5" rx="11" ry="11" style="stroke: #A80036; stroke-width: 1.0;"/><path d="M643.9219,19.7656 L643.9219,17.6094 L651.3125,17.6094 L651.3125,19.7656 L648.8438,19.7656 L648.8438,27.8438 L651.3125,27.8438 L651.3125,30 L643.9219,30 L643.9219,27.8438 L646.3906,27.8438 L646.3906,19.7656 L643.9219,19.7656 Z "/><text fill="#000000" font-family="sans-serif" font-size="12" font-style="italic" lengthAdjust="spacingAndGlyphs" textLength="100" x="662" y="28.1543">IDoorRepository</text><line style="stroke: #A80036; stroke-width: 1.5;" x1="634" x2="764" y1="40" y2="40"/><line style="stroke: #A80036; stroke-width: 1.5;" x1="634" x2="764" y1="48" y2="48"/><!--MD5=[1a1ffd768ee4cb0eb66cd16a309b571d]
class DoorRepository--><rect fill="#FEFECE" filter="url(#f1u0wq0eshp8ey)" height="48" id="DoorRepository" style="stroke: #A80036; stroke-width: 1.5;" width="128" x="635" y="116"/><ellipse cx="650" cy="132" fill="#ADD1B2" rx="11" ry="11" style="stroke: #A80036; stroke-width: 1.0;"/><path d="M652.9688,137.6406 Q652.3906,137.9375 651.75,138.0781 Q651.1094,138.2344 650.4063,138.2344 Q647.9063,138.2344 646.5781,136.5938 Q645.2656,134.9375 645.2656,131.8125 Q645.2656,128.6875 646.5781,127.0313 Q647.9063,125.375 650.4063,125.375 Q651.1094,125.375 651.75,125.5313 Q652.4063,125.6875 652.9688,125.9844 L652.9688,128.7031 Q652.3438,128.125 651.75,127.8594 Q651.1563,127.5781 650.5313,127.5781 Q649.1875,127.5781 648.5,128.6563 Q647.8125,129.7188 647.8125,131.8125 Q647.8125,133.9063 648.5,134.9844 Q649.1875,136.0469 650.5313,136.0469 Q651.1563,136.0469 651.75,135.7813 Q652.3438,135.5 652.9688,134.9219 L652.9688,137.6406 Z "/><text fill="#000000" font-family="sans-serif" font-size="12" lengthAdjust="spacingAndGlyphs" textLength="96" x="664" y="136.1543">DoorRepository</text><line style="stroke: #A80036; stroke-width: 1.5;" x1="636" x2="762" y1="148" y2="148"/><line style="stroke: #A80036; stroke-width: 1.5;" x1="636" x2="762" y1="156" y2="156"/><!--MD5=[92e6155ef28434f6b9e1e3fa242d0583]
reverse link IPersonRepository to PersonRepository--><path d="M144.42,70.28 C129.6,85.39 112.93,102.38 99.88,115.68 " fill="none" id="IPersonRepository&lt;-PersonRepository" style="stroke: #A80036; stroke-width: 1.0; stroke-dasharray: 7.0,7.0;"/><polygon fill="none" points="139.43,65.37,158.43,56,149.42,75.18,139.43,65.37" style="stroke: #A80036; stroke-width: 1.0;"/><!--MD5=[9c78c82cf1d4b2e10484e8d0508233a8]
reverse link IPersonRepository to InMemoryPersonRepository--><path d="M217.68,70.75 C232.25,85.74 248.55,102.51 261.34,115.68 " fill="none" id="IPersonRepository&lt;-InMemoryPersonRepository" style="stroke: #A80036; stroke-width: 1.0; stroke-dasharray: 7.0,7.0;"/><polygon fill="none" points="212.27,75.22,203.35,56,222.31,65.47,212.27,75.22" style="stroke: #A80036; stroke-width: 1.0;"/><!--MD5=[8e54b71d3ddf6b8b33dbe32392fdfd11]
reverse link IAccessEventRepository to AccessEventRepository--><path d="M508,76.02 C508,89.58 508,104.04 508,115.68 " fill="none" id="IAccessEventRepository&lt;-AccessEventRepository" style="stroke: #A80036; stroke-width: 1.0; stroke-dasharray: 7.0,7.0;"/><polygon fill="none" points="501,76,508,56,515,76,501,76" style="stroke: #A80036; stroke-width: 1.0;"/><!--MD5=[ec19c994ad2e7acee02e170fb4b70018]
reverse link IDoorRepository to DoorRepository--><path d="M699,76.02 C699,89.58 699,104.04 699,115.68 " fill="none" id="IDoorRepository&lt;-DoorRepository" style="stroke: #A80036; stroke-width: 1.0; stroke-dasharray: 7.0,7.0;"/><polygon fill="none" points="692,76,699,56,706,76,692,76" style="stroke: #A80036; stroke-width: 1.0;"/><!--MD5=[99eae13ed4878fbcd5e2dd8af48cb3e3]
@startuml
interface IPersonRepository
class PersonRepository
class InMemoryPersonRepository
IPersonRepository <|.. PersonRepository
IPersonRepository <|.. InMemoryPersonRepository

interface IAccessEventRepository
class AccessEventRepository
IAccessEventRepository <|.. AccessEventRepository

interface IDoorRepository
class DoorRepository
IDoorRepository <|.. DoorRepository
@enduml

PlantUML version 1.2020.02(Sun Mar 01 10:22:07 UTC 2020)
(GPL source distribution)
Java Runtime: OpenJDK Runtime Environment
JVM: OpenJDK 64-Bit Server VM
Java Version: 21.0.2+13-58
Operating System: Linux
Default Encoding: UTF-8
Language: en
Country: null
--></g></svg>